<svg xmlns="http://www.w3.org/2000/svg" width="22.698" height="22.652" viewBox="0 0 22.698 22.652">
  <g id="Group_59" data-name="Group 59" transform="translate(-7919.644 -813.328)">
    <path id="Path_33" data-name="Path 33" d="M7920.344,825.051l8.139-10.931a.723.723,0,0,1,1.157,0l1.85,2.452" fill="#a1b5d1" stroke="#fff" stroke-linecap="round" stroke-linejoin="round" stroke-width="1"/>
    <path id="Rectangle_39" data-name="Rectangle 39" d="M0,0H16.287a.723.723,0,0,1,.723.723v11.37a.723.723,0,0,1-.723.723H0a0,0,0,0,1,0,0V0A0,0,0,0,1,0,0Z" transform="matrix(0.798, -0.602, 0.602, 0.798, 7920.344, 825.051)" fill="#a1b5d1" stroke="#fff" stroke-linecap="round" stroke-linejoin="round" stroke-width="1"/>
    <path id="Rectangle_40" data-name="Rectangle 40" d="M1.815,0H9.393a0,0,0,0,1,0,0V3.631a0,0,0,0,1,0,0H1.815A1.815,1.815,0,0,1,0,1.815v0A1.815,1.815,0,0,1,1.815,0Z" transform="matrix(0.798, -0.602, 0.602, 0.798, 7928.955, 824.305)" fill="#a1b5d1" stroke="#fff" stroke-linecap="round" stroke-linejoin="round" stroke-width="1"/>
    <circle id="Ellipse_7" data-name="Ellipse 7" cx="0.419" cy="0.419" r="0.419" transform="translate(7931.091 824.783) rotate(-69.398)" stroke-width="1" stroke="#fff" stroke-linecap="round" stroke-linejoin="round" fill="#a1b5d1"/>
  </g>
</svg>
